<?xml version="1.0" encoding="utf-8"?>
<!-- Generator: Adobe Illustrator 18.1.1, SVG Export Plug-In . SVG Version: 6.00 Build 0)  -->
<svg version="1.1" id="Layer_1" xmlns="http://www.w3.org/2000/svg" xmlns:xlink="http://www.w3.org/1999/xlink" x="0px" y="0px"
	 viewBox="0 0 48 56" enable-background="new 0 0 48 56" xml:space="preserve">
<circle fill="#FFFFFF" cx="24" cy="28" r="24"/>
<path d="M34,18c-1.1,0-2.1,0.7-2.4,1.8h-5.3C26,18.8,25,18,23.9,18s-2.1,0.7-2.4,1.8h-5.3c-0.3-1-1.3-1.8-2.4-1.8
	c-1.4,0-2.5,1.1-2.5,2.5s1.1,2.5,2.5,2.5c1.1,0,2.1-0.7,2.4-1.8h5.3c0.2,0.8,0.9,1.4,1.6,1.6v15.3c-1,0.3-1.8,1.3-1.8,2.4
	c0,1.4,1.1,2.5,2.5,2.5s2.5-1.1,2.5-2.5c0-1.1-0.7-2.1-1.7-2.4V22.8c0.8-0.2,1.4-0.8,1.6-1.6h5.3c0.3,1,1.3,1.8,2.4,1.8
	c1.4,0,2.5-1.1,2.5-2.5C36.5,19.1,35.4,18,34,18z"/>
</svg>
